<svg version="1" xmlns="http://www.w3.org/2000/svg" width="266.667" height="266.667" viewBox="0 0 200.000000 200.000000"><path d="M29.6 9.7c-8.2 1.4-22.7 6.5-25 8.9-.8.8-2.2 1.4-3.1 1.4-2.6 0-1 1.4 5.2 4.5 3.2 1.6 6.9 3.6 8.3 4.6 1.4.9 2.7 1.6 3 1.6.5-.1 1.9.7 12.5 7.4C51.1 50.9 69.2 68.2 79.8 85c2.3 3.6 4.6 7 5.1 7.6.5.7.8 1.4.5 1.7-.3.2.1.7.9 1 1 .4 1.4-.2 1.3-1.6-.1-1.2.1-3.2.5-4.4.5-1.2 1-3.9 1.3-6 1-8 7.8-28 10-29.5.6-.4.7-.8.3-.8-.9 0 1.3-4 6.6-11.9l2.9-4.5-3.6-3.2c-1.9-1.7-5.9-4.7-8.8-6.5-2.9-1.8-5.6-3.7-5.9-4.2-.3-.5-.9-.9-1.2-.8-.4 0-4.1-1.6-8.3-3.5C63.1 9.9 45.7 7 29.6 9.7zM156.5 16.7c-4.3.7-8.2 1.7-8.5 2.1-.3.4-1.4.9-2.5 1-1.1.2-2.1.8-2.3 1.3-.2.5-.8.9-1.4.9-1.8 0-9.7 6-14.9 11.3-4.9 5-13.5 16.4-13.3 17.6.1.3-.9 2.2-2.1 4.1-2.9 4.6-7.2 15.5-8.7 21.9-.6 2.8-1.4 5.1-1.7 5.1-.4 0-.7 1.3-.7 3-.1 1.6-.5 3.7-.9 4.7-.5 1-.9 2.2-1.1 2.8-.3 1.5-7.6 39.7-7.9 42-.3 1.8-3.7 16-5 20.8-.3.9-.7 2.5-.9 3.5-.3.9-1.6 4.6-3 8.1-1.4 3.6-2.6 6.6-2.6 6.8 0 .5 11.5-4.1 12-4.9.3-.4 1.5-.9 2.5-1.1 1.1-.1 2.6-.7 3.4-1.1.8-.5 4.4-2.5 8-4.3 22.5-11.7 35.3-24 46.6-44.7 3.8-7 11.9-26.7 13-31.6.2-.8 1-3.5 1.9-6 .9-2.5 1.8-5.2 2-6 1.2-4.9 9.1-23.5 10.6-25 .3-.3 2.2-3 4.3-6.1 3.9-5.8 7.5-9.5 13.3-13.4l3.4-2.3-3.7-2.4c-8.1-5-15.3-7.5-24.3-8.4-3-.3-5.9-.7-6.5-.8-.5-.2-4.6.3-9 1.1zM19.1 145.9c-2.5 1.6-13.5 25-16.5 35.1l-1.5 5 3.4 1.4c9.9 4.2 21.6 4.9 35.5 2.3 9.1-1.7 22.1-11.1 27.8-20.2 3.1-4.8 6.9-14.4 7.6-18.9l.6-3.4-4.8 1.4c-7.8 2.4-10.3 2.7-20.7 2.6-11.3 0-13.9-.4-23.6-3.6-3.8-1.2-7.3-2-7.8-1.7z"/></svg>